#N canvas 901 198 450 300 10;
#X declare -lib mrpeach;
#X obj 16 10 import mrpeach;
#X obj 169 92 unpackOSC;
#X obj 178 268 print;
#X obj 169 57 udpreceive 3332;
#X obj 121 132 routeOSC /board;
#X obj 14 156 prepend user:;
#X obj 121 156 prepend board:;
#X obj 14 132 routeOSC /user;
#X obj 223 131 routeOSC /yPos;
#X obj 327 131 routeOSC /toggle;
#X obj 223 155 prepend ypos:;
#X obj 327 155 prepend toggle:;
#X connect 1 0 4 0;
#X connect 1 0 7 0;
#X connect 1 0 8 0;
#X connect 1 0 9 0;
#X connect 3 0 1 0;
#X connect 4 0 6 0;
#X connect 5 0 2 0;
#X connect 6 0 2 0;
#X connect 7 0 5 0;
#X connect 8 0 10 0;
#X connect 9 0 11 0;
#X connect 10 0 2 0;
#X connect 11 0 2 0;
